<svg className="fill-current" width="24" height="24" viewBox="0 0 24 24" fill="white"
    xmlns="http://www.w3.org/2000/svg">
    <g clipPath="url(#clip0_2005_10818)">
        <path d="M576.272784 368.266726l-96.002796 94.466751L569.360583 550.416031l96.002796-94.466751a57.793683 57.793683 0 0 0 0-82.626407l-4.992146-4.992145a60.09775 60.09775 0 0 0-84.098449 0z m-24.832723-130.11579l-35.521035 17.472509-17.600512 35.00902a13.440391 13.440391 0 0 1-23.936698 0l-17.728516-35.00902-35.521035-17.472509a13.05638 13.05638 0 0 1 0-23.552686l35.521035-17.472509 17.728516-35.009019a13.440391 13.440391 0 0 1 23.936698 0l17.600512 35.009019 35.521035 17.472509a13.120382 13.120382 0 0 1 0 23.552686zM469.773682 370.8268a44.225288 44.225288 0 0 1-27.200792 41.153199 44.801305 44.801305 0 0 1-48.641417-9.344272 44.033282 44.033282 0 0 1-9.920289-48.257406 44.545297 44.545297 0 0 1 41.217201-27.392798 44.225288 44.225288 0 0 1 44.545297 43.777275zM618.258007 151.684418a43.969281 43.969281 0 0 1-43.713273-44.161286A43.969281 43.969281 0 0 1 618.898025 64.001864c24.320708 0.064002 43.969281 19.712574 43.969281 43.841277a44.225288 44.225288 0 0 1-44.545297 43.841277z m44.609299 408.971911c24.320708 0.320009 43.841277 20.032583 43.713273 44.161286a43.969281 43.969281 0 0 1-44.28929 43.521268 43.969281 43.969281 0 0 1-43.96928-43.841277 44.225288 44.225288 0 0 1 44.545297-43.777275z m3.200093-344.842043l71.042069-35.00902 35.521035-69.762032a26.880783 26.880783 0 0 1 47.809392 0l35.521035 69.762032 71.042069 35.00902a26.176762 26.176762 0 0 1 0 47.04137l-71.042069 34.945017-35.521035 69.826034a26.880783 26.880783 0 0 1-47.809392 0l-35.521035-69.826034-71.042069-35.009019a26.176762 26.176762 0 0 1 0.064002-46.977368zM459.277376 483.214074l89.090595 87.682553-367.05069 360.906512c-23.296679 22.784664-100.802936 36.417061-113.2833 22.784663-12.416362-13.632397 6.400186-91.778673 27.904813-113.923318L459.213375 483.214074z m411.531986-83.202424a44.225288 44.225288 0 0 1 27.200793-41.153198 44.801305 44.801305 0 0 1 48.705418 9.28027c12.800373 12.672369 16.768488 31.680923 9.856287 48.257406a44.545297 44.545297 0 0 1-41.2172 27.456799 44.225288 44.225288 0 0 1-44.545298-43.841277z m-122.883579 136.003961l35.457033-17.53651 17.792518-34.945018a13.440391 13.440391 0 0 1 23.872696 0l17.664514 34.945018 35.457033 17.53651a13.05638 13.05638 0 0 1 0 23.488685l-35.457033 17.472508-17.664514 35.00902a13.440391 13.440391 0 0 1-23.872696 0l-17.792518-35.00902-35.521035-17.472508a13.120382 13.120382 0 0 1 0-23.488685z" />
    </g>
    <defs>
        <clipPath id="clip0_2005_10818">
            <rect width="24" height="24" fill="white" />
        </clipPath>
    </defs>
</svg>